<svg id="visual" viewBox="0 0 900 600" width="900" height="600" xmlns="http://www.w3.org/2000/svg" xmlns:xlink="http://www.w3.org/1999/xlink" version="1.1"><rect x="0" y="0" width="900" height="600" fill="#cdc8de"></rect><path d="M0 162L25 163.7C50 165.3 100 168.7 150 184.2C200 199.7 250 227.3 300 239.2C350 251 400 247 450 241.8C500 236.7 550 230.3 600 214.5C650 198.7 700 173.3 750 165.7C800 158 850 168 875 173L900 178L900 0L875 0C850 0 800 0 750 0C700 0 650 0 600 0C550 0 500 0 450 0C400 0 350 0 300 0C250 0 200 0 150 0C100 0 50 0 25 0L0 0Z" fill="#dde2e9" stroke-linecap="round" stroke-linejoin="miter"></path></svg>